<?xml version="1.0" encoding="utf-8"?>
<!-- Generator: Adobe Illustrator 21.1.0, SVG Export Plug-In . SVG Version: 6.00 Build 0)  -->
<svg version="1.1" id="linkedin" xmlns="http://www.w3.org/2000/svg" xmlns:xlink="http://www.w3.org/1999/xlink" x="0px" y="0px"
	 viewBox="0 0 100 100" style="enable-background:new 0 0 100 100;" xml:space="preserve">
<style type="text/css">
	.st0{fill:#0399FF;}
	.st1{fill:#FFFFFF;}
</style>
<circle class="st0" cx="50" cy="50" r="48"/>
<path class="st1" d="M26.5,36.2l0.1,27.3l0,0.5l0.1,0.5c0.6,2.9,3.9,8.3,11.8,8.3h23.4l0.2,0c4-0.4,11.6-3.5,11.4-12
	c0,0.1-0.1-9.9-0.1-9.9l0-4.6l-13.3,0.2l4.6,4.6V36.1l-0.2-0.7c-1-3-4.7-8.1-12.3-8.1c0,0-15.5-0.1-15.5-0.1c-1,0-5.4,0.3-8.2,3.3
	c-1.5,1.6-2.2,3.7-2.1,6L26.5,36.2L26.5,36.2z M36.7,36.4l15.5,0.1c2.7,0,3.5,1.5,3.7,2c0,0,0,0,0-0.1l-0.2-1.5v18.8L69,55.5
	L64.3,51l0.1,9.9c0,2.4-3.1,2.8-3.3,2.8l0.5,0H38.5c-2.4,0-2.9-1.1-2.9-1.2l0.1,1l-0.1-27.3v-0.1l0-0.1c0,0.2-0.2,0.7-0.4,0.8
	C35.5,36.6,36.5,36.4,36.7,36.4L36.7,36.4z"/>
</svg>
